<mxfile host="65bd71144e">
    <diagram id="4FK7n-NDTDCEypN0zNm8" name="第1頁">
        <mxGraphModel dx="917" dy="766" grid="1" gridSize="10" guides="1" tooltips="1" connect="1" arrows="1" fold="1" page="1" pageScale="1" pageWidth="827" pageHeight="1169" math="0" shadow="0">
            <root>
                <mxCell id="0"/>
                <mxCell id="1" parent="0"/>
                <mxCell id="36" value="" style="ellipse;shape=cloud;whiteSpace=wrap;html=1;fontSize=18;" vertex="1" parent="1">
                    <mxGeometry x="25" y="40" width="730" height="610" as="geometry"/>
                </mxCell>
                <mxCell id="3" value="&lt;font style=&quot;font-size: 18px;&quot;&gt;掛號&lt;/font&gt;" style="ellipse;whiteSpace=wrap;html=1;" vertex="1" parent="1">
                    <mxGeometry x="160" y="250" width="120" height="80" as="geometry"/>
                </mxCell>
                <mxCell id="4" value="&lt;span style=&quot;font-size: 18px;&quot;&gt;選擇時間&lt;/span&gt;" style="ellipse;whiteSpace=wrap;html=1;" vertex="1" parent="1">
                    <mxGeometry x="470" y="240" width="120" height="80" as="geometry"/>
                </mxCell>
                <mxCell id="5" value="&lt;span style=&quot;font-size: 18px;&quot;&gt;完成&lt;/span&gt;" style="ellipse;whiteSpace=wrap;html=1;" vertex="1" parent="1">
                    <mxGeometry x="170" y="440" width="120" height="80" as="geometry"/>
                </mxCell>
                <mxCell id="6" value="&lt;span style=&quot;font-size: 18px;&quot;&gt;填資料&lt;/span&gt;" style="ellipse;whiteSpace=wrap;html=1;" vertex="1" parent="1">
                    <mxGeometry x="490" y="440" width="120" height="80" as="geometry"/>
                </mxCell>
                <mxCell id="7" value="&lt;span style=&quot;font-size: 18px;&quot;&gt;網站&lt;/span&gt;" style="ellipse;whiteSpace=wrap;html=1;" vertex="1" parent="1">
                    <mxGeometry x="330" y="330" width="120" height="80" as="geometry"/>
                </mxCell>
                <mxCell id="9" value="&lt;span style=&quot;font-size: 18px;&quot;&gt;病患&lt;/span&gt;" style="ellipse;whiteSpace=wrap;html=1;" vertex="1" parent="1">
                    <mxGeometry x="330" y="160" width="120" height="80" as="geometry"/>
                </mxCell>
                <mxCell id="13" value="" style="endArrow=classic;html=1;fontSize=18;dashed=1;exitX=1.019;exitY=0.421;exitDx=0;exitDy=0;exitPerimeter=0;entryX=-0.014;entryY=0.329;entryDx=0;entryDy=0;entryPerimeter=0;" edge="1" parent="1" source="5" target="6">
                    <mxGeometry width="50" height="50" relative="1" as="geometry">
                        <mxPoint x="320" y="489.5" as="sourcePoint"/>
                        <mxPoint x="470" y="480" as="targetPoint"/>
                    </mxGeometry>
                </mxCell>
                <mxCell id="14" value="" style="endArrow=classic;html=1;fontSize=18;dashed=1;exitX=0.925;exitY=0.796;exitDx=0;exitDy=0;exitPerimeter=0;entryX=0.025;entryY=0.371;entryDx=0;entryDy=0;entryPerimeter=0;" edge="1" parent="1" source="3" target="7">
                    <mxGeometry width="50" height="50" relative="1" as="geometry">
                        <mxPoint x="290" y="310" as="sourcePoint"/>
                        <mxPoint x="320" y="350" as="targetPoint"/>
                    </mxGeometry>
                </mxCell>
                <mxCell id="16" value="" style="endArrow=classic;html=1;fontSize=18;dashed=1;exitX=0.742;exitY=0.046;exitDx=0;exitDy=0;exitPerimeter=0;entryX=0;entryY=1;entryDx=0;entryDy=0;" edge="1" parent="1" source="5" target="7">
                    <mxGeometry width="50" height="50" relative="1" as="geometry">
                        <mxPoint x="290" y="440" as="sourcePoint"/>
                        <mxPoint x="320" y="410" as="targetPoint"/>
                    </mxGeometry>
                </mxCell>
                <mxCell id="17" value="" style="endArrow=classic;html=1;fontSize=18;dashed=1;exitX=0.414;exitY=0.021;exitDx=0;exitDy=0;exitPerimeter=0;" edge="1" parent="1" source="7" target="9">
                    <mxGeometry width="50" height="50" relative="1" as="geometry">
                        <mxPoint x="380" y="320" as="sourcePoint"/>
                        <mxPoint x="380" y="250" as="targetPoint"/>
                    </mxGeometry>
                </mxCell>
                <mxCell id="18" value="" style="endArrow=classic;html=1;fontSize=18;dashed=1;exitX=0.5;exitY=0;exitDx=0;exitDy=0;entryX=0.653;entryY=1.013;entryDx=0;entryDy=0;entryPerimeter=0;" edge="1" parent="1" source="6" target="4">
                    <mxGeometry width="50" height="50" relative="1" as="geometry">
                        <mxPoint x="550" y="410" as="sourcePoint"/>
                        <mxPoint x="570" y="350" as="targetPoint"/>
                    </mxGeometry>
                </mxCell>
                <mxCell id="20" value="" style="endArrow=classic;html=1;fontSize=18;dashed=1;exitX=0;exitY=0;exitDx=0;exitDy=0;" edge="1" parent="1" source="6" target="7">
                    <mxGeometry width="50" height="50" relative="1" as="geometry">
                        <mxPoint x="530" y="420" as="sourcePoint"/>
                        <mxPoint x="530" y="360.5" as="targetPoint"/>
                    </mxGeometry>
                </mxCell>
                <mxCell id="22" value="" style="endArrow=classic;html=1;fontSize=18;dashed=1;" edge="1" parent="1" source="4" target="7">
                    <mxGeometry width="50" height="50" relative="1" as="geometry">
                        <mxPoint x="490" y="379.5" as="sourcePoint"/>
                        <mxPoint x="470" y="340" as="targetPoint"/>
                    </mxGeometry>
                </mxCell>
                <mxCell id="23" value="" style="endArrow=classic;html=1;fontSize=18;entryX=0.25;entryY=0.125;entryDx=0;entryDy=0;entryPerimeter=0;exitX=0.403;exitY=0.996;exitDx=0;exitDy=0;exitPerimeter=0;" edge="1" parent="1" source="4" target="6">
                    <mxGeometry width="50" height="50" relative="1" as="geometry">
                        <mxPoint x="520" y="325" as="sourcePoint"/>
                        <mxPoint x="520" y="430" as="targetPoint"/>
                    </mxGeometry>
                </mxCell>
                <mxCell id="27" value="" style="endArrow=classic;html=1;fontSize=18;dashed=1;exitX=-0.003;exitY=0.338;exitDx=0;exitDy=0;entryX=1.019;entryY=0.346;entryDx=0;entryDy=0;entryPerimeter=0;exitPerimeter=0;" edge="1" parent="1" source="4" target="3">
                    <mxGeometry width="50" height="50" relative="1" as="geometry">
                        <mxPoint x="440" y="290" as="sourcePoint"/>
                        <mxPoint x="340" y="290" as="targetPoint"/>
                    </mxGeometry>
                </mxCell>
                <mxCell id="28" value="" style="endArrow=classic;html=1;fontSize=18;entryX=0;entryY=0.625;entryDx=0;entryDy=0;entryPerimeter=0;" edge="1" parent="1" target="4">
                    <mxGeometry width="50" height="50" relative="1" as="geometry">
                        <mxPoint x="280" y="300" as="sourcePoint"/>
                        <mxPoint x="440" y="310" as="targetPoint"/>
                    </mxGeometry>
                </mxCell>
                <mxCell id="29" value="" style="endArrow=classic;html=1;fontSize=18;entryX=0.569;entryY=0.004;entryDx=0;entryDy=0;entryPerimeter=0;" edge="1" parent="1" source="7" target="5">
                    <mxGeometry width="50" height="50" relative="1" as="geometry">
                        <mxPoint x="130" y="390" as="sourcePoint"/>
                        <mxPoint x="110" y="430" as="targetPoint"/>
                    </mxGeometry>
                </mxCell>
                <mxCell id="31" value="" style="endArrow=classic;html=1;fontSize=18;exitX=0;exitY=0.5;exitDx=0;exitDy=0;entryX=0.792;entryY=0.988;entryDx=0;entryDy=0;entryPerimeter=0;" edge="1" parent="1" source="7" target="3">
                    <mxGeometry width="50" height="50" relative="1" as="geometry">
                        <mxPoint x="180" y="370" as="sourcePoint"/>
                        <mxPoint x="140" y="350" as="targetPoint"/>
                    </mxGeometry>
                </mxCell>
                <mxCell id="32" value="" style="endArrow=classic;html=1;fontSize=18;entryX=1;entryY=0.625;entryDx=0;entryDy=0;entryPerimeter=0;" edge="1" parent="1" source="6" target="5">
                    <mxGeometry width="50" height="50" relative="1" as="geometry">
                        <mxPoint x="420" y="550" as="sourcePoint"/>
                        <mxPoint x="310" y="510" as="targetPoint"/>
                    </mxGeometry>
                </mxCell>
                <mxCell id="33" value="" style="endArrow=classic;html=1;fontSize=18;entryX=0.667;entryY=0;entryDx=0;entryDy=0;entryPerimeter=0;exitX=0.675;exitY=0.996;exitDx=0;exitDy=0;exitPerimeter=0;" edge="1" parent="1" source="9" target="7">
                    <mxGeometry width="50" height="50" relative="1" as="geometry">
                        <mxPoint x="390" y="410" as="sourcePoint"/>
                        <mxPoint x="440" y="360" as="targetPoint"/>
                    </mxGeometry>
                </mxCell>
                <mxCell id="34" value="" style="endArrow=classic;html=1;fontSize=18;exitX=0.986;exitY=0.746;exitDx=0;exitDy=0;exitPerimeter=0;" edge="1" parent="1" source="7" target="6">
                    <mxGeometry width="50" height="50" relative="1" as="geometry">
                        <mxPoint x="390" y="410" as="sourcePoint"/>
                        <mxPoint x="620" y="370" as="targetPoint"/>
                    </mxGeometry>
                </mxCell>
                <mxCell id="35" value="" style="endArrow=classic;html=1;fontSize=18;entryX=0.231;entryY=0.971;entryDx=0;entryDy=0;entryPerimeter=0;" edge="1" parent="1" target="4">
                    <mxGeometry width="50" height="50" relative="1" as="geometry">
                        <mxPoint x="450" y="360" as="sourcePoint"/>
                        <mxPoint x="440" y="360" as="targetPoint"/>
                    </mxGeometry>
                </mxCell>
            </root>
        </mxGraphModel>
    </diagram>
</mxfile>